<mxfile host="app.diagrams.net" modified="2021-06-03T12:50:17.919Z" agent="5.0 (Windows NT 10.0; Win64; x64) AppleWebKit/537.36 (KHTML, like Gecko) Chrome/85.0.4183.102 Safari/537.36" etag="-___0goTiii60mxZfCCS" version="14.7.3" type="github" pages="2">
  <diagram id="C5RBs43oDa-KdzZeNtuy" name="Page-1">
    <mxGraphModel dx="1422" dy="762" grid="1" gridSize="10" guides="1" tooltips="1" connect="1" arrows="1" fold="1" page="1" pageScale="1" pageWidth="827" pageHeight="1169" math="0" shadow="0">
      <root>
        <mxCell id="WIyWlLk6GJQsqaUBKTNV-0" />
        <mxCell id="WIyWlLk6GJQsqaUBKTNV-1" parent="WIyWlLk6GJQsqaUBKTNV-0" />
        <mxCell id="WIyWlLk6GJQsqaUBKTNV-2" value="" style="rounded=0;html=1;jettySize=auto;orthogonalLoop=1;fontSize=11;endArrow=block;endFill=0;endSize=8;strokeWidth=1;shadow=0;labelBackgroundColor=none;edgeStyle=orthogonalEdgeStyle;" parent="WIyWlLk6GJQsqaUBKTNV-1" source="WIyWlLk6GJQsqaUBKTNV-3" target="WIyWlLk6GJQsqaUBKTNV-6" edge="1">
          <mxGeometry relative="1" as="geometry" />
        </mxCell>
        <mxCell id="WIyWlLk6GJQsqaUBKTNV-3" value="Lamp doesn&#39;t work" style="rounded=1;whiteSpace=wrap;html=1;fontSize=12;glass=0;strokeWidth=1;shadow=0;" parent="WIyWlLk6GJQsqaUBKTNV-1" vertex="1">
          <mxGeometry x="160" y="80" width="120" height="40" as="geometry" />
        </mxCell>
        <mxCell id="WIyWlLk6GJQsqaUBKTNV-4" value="Yes" style="rounded=0;html=1;jettySize=auto;orthogonalLoop=1;fontSize=11;endArrow=block;endFill=0;endSize=8;strokeWidth=1;shadow=0;labelBackgroundColor=none;edgeStyle=orthogonalEdgeStyle;" parent="WIyWlLk6GJQsqaUBKTNV-1" source="WIyWlLk6GJQsqaUBKTNV-6" target="WIyWlLk6GJQsqaUBKTNV-10" edge="1">
          <mxGeometry y="20" relative="1" as="geometry">
            <mxPoint as="offset" />
          </mxGeometry>
        </mxCell>
        <mxCell id="WIyWlLk6GJQsqaUBKTNV-5" value="No" style="edgeStyle=orthogonalEdgeStyle;rounded=0;html=1;jettySize=auto;orthogonalLoop=1;fontSize=11;endArrow=block;endFill=0;endSize=8;strokeWidth=1;shadow=0;labelBackgroundColor=none;" parent="WIyWlLk6GJQsqaUBKTNV-1" source="WIyWlLk6GJQsqaUBKTNV-6" target="WIyWlLk6GJQsqaUBKTNV-7" edge="1">
          <mxGeometry y="10" relative="1" as="geometry">
            <mxPoint as="offset" />
          </mxGeometry>
        </mxCell>
        <mxCell id="WIyWlLk6GJQsqaUBKTNV-6" value="Lamp&lt;br&gt;plugged in?" style="rhombus;whiteSpace=wrap;html=1;shadow=0;fontFamily=Helvetica;fontSize=12;align=center;strokeWidth=1;spacing=6;spacingTop=-4;" parent="WIyWlLk6GJQsqaUBKTNV-1" vertex="1">
          <mxGeometry x="170" y="170" width="100" height="80" as="geometry" />
        </mxCell>
        <mxCell id="WIyWlLk6GJQsqaUBKTNV-7" value="Plug in lamp" style="rounded=1;whiteSpace=wrap;html=1;fontSize=12;glass=0;strokeWidth=1;shadow=0;" parent="WIyWlLk6GJQsqaUBKTNV-1" vertex="1">
          <mxGeometry x="320" y="190" width="120" height="40" as="geometry" />
        </mxCell>
        <mxCell id="WIyWlLk6GJQsqaUBKTNV-8" value="No" style="rounded=0;html=1;jettySize=auto;orthogonalLoop=1;fontSize=11;endArrow=block;endFill=0;endSize=8;strokeWidth=1;shadow=0;labelBackgroundColor=none;edgeStyle=orthogonalEdgeStyle;" parent="WIyWlLk6GJQsqaUBKTNV-1" source="WIyWlLk6GJQsqaUBKTNV-10" target="WIyWlLk6GJQsqaUBKTNV-11" edge="1">
          <mxGeometry x="0.3333" y="20" relative="1" as="geometry">
            <mxPoint as="offset" />
          </mxGeometry>
        </mxCell>
        <mxCell id="WIyWlLk6GJQsqaUBKTNV-9" value="Yes" style="edgeStyle=orthogonalEdgeStyle;rounded=0;html=1;jettySize=auto;orthogonalLoop=1;fontSize=11;endArrow=block;endFill=0;endSize=8;strokeWidth=1;shadow=0;labelBackgroundColor=none;" parent="WIyWlLk6GJQsqaUBKTNV-1" source="WIyWlLk6GJQsqaUBKTNV-10" target="WIyWlLk6GJQsqaUBKTNV-12" edge="1">
          <mxGeometry y="10" relative="1" as="geometry">
            <mxPoint as="offset" />
          </mxGeometry>
        </mxCell>
        <mxCell id="WIyWlLk6GJQsqaUBKTNV-10" value="Bulb&lt;br&gt;burned out?" style="rhombus;whiteSpace=wrap;html=1;shadow=0;fontFamily=Helvetica;fontSize=12;align=center;strokeWidth=1;spacing=6;spacingTop=-4;" parent="WIyWlLk6GJQsqaUBKTNV-1" vertex="1">
          <mxGeometry x="170" y="290" width="100" height="80" as="geometry" />
        </mxCell>
        <mxCell id="WIyWlLk6GJQsqaUBKTNV-11" value="Repair Lamp" style="rounded=1;whiteSpace=wrap;html=1;fontSize=12;glass=0;strokeWidth=1;shadow=0;" parent="WIyWlLk6GJQsqaUBKTNV-1" vertex="1">
          <mxGeometry x="160" y="430" width="120" height="40" as="geometry" />
        </mxCell>
        <mxCell id="WIyWlLk6GJQsqaUBKTNV-12" value="Replace Bulb" style="rounded=1;whiteSpace=wrap;html=1;fontSize=12;glass=0;strokeWidth=1;shadow=0;" parent="WIyWlLk6GJQsqaUBKTNV-1" vertex="1">
          <mxGeometry x="320" y="310" width="120" height="40" as="geometry" />
        </mxCell>
      </root>
    </mxGraphModel>
  </diagram>
  <diagram id="f5NMwHguMpuOT3ncXebZ" name="Page-2">
    <mxGraphModel dx="1673" dy="896" grid="1" gridSize="10" guides="1" tooltips="1" connect="1" arrows="1" fold="1" page="1" pageScale="1" pageWidth="1100" pageHeight="850" math="0" shadow="0">
      <root>
        <mxCell id="rs41qXQM651XxID4svO8-0" />
        <mxCell id="rs41qXQM651XxID4svO8-1" parent="rs41qXQM651XxID4svO8-0" />
        <mxCell id="rs41qXQM651XxID4svO8-3" style="edgeStyle=orthogonalEdgeStyle;rounded=0;orthogonalLoop=1;jettySize=auto;html=1;" edge="1" parent="rs41qXQM651XxID4svO8-1" source="rs41qXQM651XxID4svO8-2">
          <mxGeometry relative="1" as="geometry">
            <mxPoint x="535" y="330" as="targetPoint" />
          </mxGeometry>
        </mxCell>
        <mxCell id="rs41qXQM651XxID4svO8-2" value="Did something happen" style="rhombus;whiteSpace=wrap;html=1;" vertex="1" parent="rs41qXQM651XxID4svO8-1">
          <mxGeometry x="480" y="130" width="110" height="80" as="geometry" />
        </mxCell>
        <mxCell id="rs41qXQM651XxID4svO8-4" value="yes" style="text;html=1;align=center;verticalAlign=middle;resizable=0;points=[];autosize=1;strokeColor=none;" vertex="1" parent="rs41qXQM651XxID4svO8-1">
          <mxGeometry x="550" y="230" width="30" height="20" as="geometry" />
        </mxCell>
        <mxCell id="rs41qXQM651XxID4svO8-6" style="edgeStyle=orthogonalEdgeStyle;rounded=0;orthogonalLoop=1;jettySize=auto;html=1;" edge="1" parent="rs41qXQM651XxID4svO8-1" source="rs41qXQM651XxID4svO8-5">
          <mxGeometry relative="1" as="geometry">
            <mxPoint x="810" y="360" as="targetPoint" />
          </mxGeometry>
        </mxCell>
        <mxCell id="rs41qXQM651XxID4svO8-10" style="edgeStyle=orthogonalEdgeStyle;rounded=0;orthogonalLoop=1;jettySize=auto;html=1;" edge="1" parent="rs41qXQM651XxID4svO8-1" source="rs41qXQM651XxID4svO8-5">
          <mxGeometry relative="1" as="geometry">
            <mxPoint x="330" y="360" as="targetPoint" />
          </mxGeometry>
        </mxCell>
        <mxCell id="rs41qXQM651XxID4svO8-5" value="Was it planned ?" style="rhombus;whiteSpace=wrap;html=1;" vertex="1" parent="rs41qXQM651XxID4svO8-1">
          <mxGeometry x="495" y="320" width="80" height="80" as="geometry" />
        </mxCell>
        <mxCell id="rs41qXQM651XxID4svO8-7" value="Yes" style="text;html=1;align=center;verticalAlign=middle;resizable=0;points=[];autosize=1;strokeColor=none;" vertex="1" parent="rs41qXQM651XxID4svO8-1">
          <mxGeometry x="620" y="340" width="40" height="20" as="geometry" />
        </mxCell>
        <mxCell id="rs41qXQM651XxID4svO8-9" value="&lt;h1&gt;Documentation&lt;br&gt;&lt;/h1&gt;&lt;div&gt;Adequate documentation is required , if its retrospective then it was not a planned activity and or an over site, this requires a correction report, and or a CAPA depending on the risk level of the over site,&amp;nbsp;&lt;/div&gt;&lt;div&gt;The CAPA may then lead to a decision that a change management plan or an action / quality plan is required to correct&lt;/div&gt;" style="text;html=1;strokeColor=none;fillColor=none;spacing=5;spacingTop=-20;whiteSpace=wrap;overflow=hidden;rounded=0;" vertex="1" parent="rs41qXQM651XxID4svO8-1">
          <mxGeometry x="140" y="60" width="230" height="210" as="geometry" />
        </mxCell>
        <mxCell id="rs41qXQM651XxID4svO8-11" value="No&amp;nbsp;" style="text;html=1;align=center;verticalAlign=middle;resizable=0;points=[];autosize=1;strokeColor=none;" vertex="1" parent="rs41qXQM651XxID4svO8-1">
          <mxGeometry x="450" y="340" width="30" height="20" as="geometry" />
        </mxCell>
        <mxCell id="rs41qXQM651XxID4svO8-12" value="Documented record of event&amp;nbsp;" style="whiteSpace=wrap;html=1;aspect=fixed;" vertex="1" parent="rs41qXQM651XxID4svO8-1">
          <mxGeometry x="892.5" y="600" width="80" height="80" as="geometry" />
        </mxCell>
        <mxCell id="rs41qXQM651XxID4svO8-22" style="edgeStyle=orthogonalEdgeStyle;rounded=0;orthogonalLoop=1;jettySize=auto;html=1;" edge="1" parent="rs41qXQM651XxID4svO8-1" source="rs41qXQM651XxID4svO8-13">
          <mxGeometry relative="1" as="geometry">
            <mxPoint x="192.5" y="610" as="targetPoint" />
          </mxGeometry>
        </mxCell>
        <mxCell id="rs41qXQM651XxID4svO8-13" value="Retrospective Unplanned" style="swimlane;horizontal=0;" vertex="1" parent="rs41qXQM651XxID4svO8-1">
          <mxGeometry x="70" y="320" width="245" height="200" as="geometry" />
        </mxCell>
        <mxCell id="rs41qXQM651XxID4svO8-16" value="may result in a quality plan or some&lt;br&gt;&amp;nbsp;sort of activity that has planned steps&lt;br&gt;&amp;nbsp;" style="text;html=1;align=center;verticalAlign=middle;resizable=0;points=[];autosize=1;strokeColor=none;" vertex="1" parent="rs41qXQM651XxID4svO8-13">
          <mxGeometry x="25" y="55" width="220" height="50" as="geometry" />
        </mxCell>
        <mxCell id="rs41qXQM651XxID4svO8-14" value="Correction report" style="text;html=1;align=center;verticalAlign=middle;resizable=0;points=[];autosize=1;strokeColor=none;" vertex="1" parent="rs41qXQM651XxID4svO8-1">
          <mxGeometry x="85" y="330" width="110" height="20" as="geometry" />
        </mxCell>
        <mxCell id="rs41qXQM651XxID4svO8-15" value="CAPA" style="text;html=1;align=center;verticalAlign=middle;resizable=0;points=[];autosize=1;strokeColor=none;" vertex="1" parent="rs41qXQM651XxID4svO8-1">
          <mxGeometry x="85" y="350" width="50" height="20" as="geometry" />
        </mxCell>
        <mxCell id="rs41qXQM651XxID4svO8-21" style="edgeStyle=orthogonalEdgeStyle;rounded=0;orthogonalLoop=1;jettySize=auto;html=1;" edge="1" parent="rs41qXQM651XxID4svO8-1" source="rs41qXQM651XxID4svO8-17">
          <mxGeometry relative="1" as="geometry">
            <mxPoint x="932.5" y="600" as="targetPoint" />
          </mxGeometry>
        </mxCell>
        <mxCell id="rs41qXQM651XxID4svO8-17" value="Prospective/ Planned" style="swimlane;horizontal=0;" vertex="1" parent="rs41qXQM651XxID4svO8-1">
          <mxGeometry x="810" y="300" width="245" height="200" as="geometry" />
        </mxCell>
        <mxCell id="rs41qXQM651XxID4svO8-18" value="may result in a quality plan or some&lt;br&gt;&amp;nbsp;sort of activity that has planned steps&lt;br&gt;Plan&amp;nbsp;&lt;br&gt;&amp;nbsp;" style="text;html=1;align=center;verticalAlign=middle;resizable=0;points=[];autosize=1;strokeColor=none;" vertex="1" parent="rs41qXQM651XxID4svO8-17">
          <mxGeometry x="25" y="50" width="220" height="60" as="geometry" />
        </mxCell>
        <mxCell id="rs41qXQM651XxID4svO8-19" value="&lt;h1&gt;Activities&lt;/h1&gt;&lt;div&gt;Activities are either planned or unplanned,&lt;/div&gt;&lt;div&gt;planned activities have a plan which can have a protocol for an activity and the result of completion is a report, sometimes plans/ reports can be merged depending on the ability of the documentation management system.&lt;/div&gt;&lt;div&gt;An unplanned activity that occurs during a planned activity should have a deviation report, and depending on the risk a CAPA, these are detailed in the corresponding report and justified if appropriate&amp;nbsp;&amp;nbsp;&lt;/div&gt;&lt;div&gt;&amp;nbsp;&amp;nbsp;&lt;/div&gt;" style="text;html=1;strokeColor=none;fillColor=none;spacing=5;spacingTop=-20;whiteSpace=wrap;overflow=hidden;rounded=0;" vertex="1" parent="rs41qXQM651XxID4svO8-1">
          <mxGeometry x="670" y="50" width="250" height="220" as="geometry" />
        </mxCell>
        <mxCell id="rs41qXQM651XxID4svO8-23" value="Documented record of event&amp;nbsp;" style="whiteSpace=wrap;html=1;aspect=fixed;" vertex="1" parent="rs41qXQM651XxID4svO8-1">
          <mxGeometry x="152.5" y="610" width="80" height="80" as="geometry" />
        </mxCell>
        <mxCell id="rs41qXQM651XxID4svO8-24" value="&lt;h1&gt;Documented Record&lt;br&gt;&lt;/h1&gt;&lt;div&gt;A documented record is the output of these events, it may be version controlled such as RM report , or based on a documented template , CAPA . A memo is neither a controlled document nor a record of events.&amp;nbsp;&lt;/div&gt;" style="text;html=1;strokeColor=none;fillColor=none;spacing=5;spacingTop=-20;whiteSpace=wrap;overflow=hidden;rounded=0;" vertex="1" parent="rs41qXQM651XxID4svO8-1">
          <mxGeometry x="430" y="510" width="230" height="210" as="geometry" />
        </mxCell>
      </root>
    </mxGraphModel>
  </diagram>
</mxfile>
